<?xml version="1.0" standalone="no"?>
<!DOCTYPE svg PUBLIC "-//W3C//DTD SVG 20010904//EN"
 "http://www.w3.org/TR/2001/REC-SVG-20010904/DTD/svg10.dtd">
<svg version="1.0" xmlns="http://www.w3.org/2000/svg"
 width="129.000000pt" height="150.000000pt" viewBox="0 0 129.000000 150.000000"
 preserveAspectRatio="xMidYMid meet">

<g transform="translate(0.000000,150.000000) scale(0.100000,-0.100000)"
fill="#000000" stroke="none">
<path d="M354 1281 c-31 -19 -45 -46 -59 -118 -5 -28 -11 -33 -34 -33 -34 0
-71 -26 -71 -50 0 -26 27 -50 56 -50 17 0 24 -5 24 -20 0 -11 -6 -20 -14 -20
-26 0 -46 -42 -46 -98 0 -63 30 -102 78 -102 27 0 30 -3 36 -44 9 -58 54 -119
105 -142 36 -16 41 -22 41 -51 l0 -33 -70 0 c-103 0 -178 -39 -215 -110 -25
-50 -86 -283 -76 -293 15 -15 28 0 40 50 33 134 72 241 96 263 l25 23 0 -171
c0 -146 2 -172 15 -172 12 0 15 19 15 110 l0 110 280 0 279 0 3 -107 c3 -93 5
-108 21 -111 16 -3 17 10 17 169 l0 172 25 -23 c33 -31 40 -57 20 -77 -13 -12
-15 -26 -10 -57 3 -23 9 -72 13 -111 5 -52 11 -70 22 -70 11 0 16 15 18 63 2
48 6 62 18 62 24 0 12 35 -14 38 -16 3 -22 10 -22 28 l0 24 120 0 120 0 0 -25
c0 -24 -2 -25 -69 -25 -50 0 -70 -4 -74 -14 -9 -22 2 -26 64 -26 l58 0 3 -62
c2 -48 7 -63 18 -63 11 0 16 15 18 65 2 36 7 69 13 75 5 5 9 28 9 52 0 51 -16
63 -89 63 -39 0 -51 4 -51 15 0 9 9 15 24 15 28 0 106 80 106 108 0 53 -62 72
-106 32 l-24 -23 0 44 c0 40 5 50 45 89 54 53 60 90 19 117 -25 16 -28 16 -56
0 -27 -15 -32 -15 -51 -2 -29 20 -43 19 -67 -5 -30 -30 -24 -56 25 -109 25
-26 45 -56 45 -66 0 -16 -4 -15 -28 8 -33 32 -55 34 -82 7 -31 -31 -24 -58 24
-106 24 -25 53 -44 65 -44 18 0 21 -6 21 -40 0 -39 -1 -40 -34 -40 -28 0 -36
5 -45 29 -16 38 -68 87 -113 105 -23 10 -67 16 -113 16 l-75 0 0 30 c0 26 6
33 45 51 28 13 45 28 45 39 0 10 13 31 29 46 19 19 31 41 33 64 3 32 6 35 42
41 52 8 76 39 76 95 0 52 -16 92 -42 99 -27 9 -23 45 5 45 25 0 57 28 57 48 0
22 -40 52 -69 52 -31 0 -33 3 -47 70 -18 88 -58 108 -193 93 -59 -7 -115 -8
-146 -3 -83 15 -137 12 -171 -9z m176 -30 c30 -4 91 -4 136 2 124 15 148 3
164 -85 l7 -38 -186 -2 c-157 -3 -186 -5 -186 -18 0 -13 33 -15 230 -18 133
-1 234 -7 239 -12 7 -7 -114 -10 -347 -10 -231 0 -357 4 -357 10 0 6 39 10 96
10 86 0 95 2 92 18 -2 12 -15 18 -47 20 -39 3 -42 5 -37 25 3 12 6 29 6 38 0
9 9 28 21 43 23 29 59 32 169 17z m214 -246 c10 -14 28 -31 42 -37 22 -10 24
-17 24 -73 0 -62 0 -63 -31 -69 -17 -3 -56 -6 -85 -6 -52 0 -54 1 -54 28 0 15
-7 38 -16 50 -31 45 -94 15 -94 -45 l0 -33 -85 0 -85 0 0 68 c0 63 2 70 24 80
14 6 32 23 42 37 16 25 17 25 159 25 142 0 143 0 159 -25z m-424 -70 c0 -18
-5 -25 -20 -25 -11 0 -20 -6 -20 -14 0 -8 9 -18 20 -21 11 -4 20 -15 20 -26 0
-17 -6 -20 -32 -17 -32 3 -33 5 -36 51 -4 55 9 77 44 77 19 0 24 -5 24 -25z
m588 13 c16 -16 16 -107 0 -113 -29 -10 -61 -9 -65 2 -3 7 7 23 21 36 32 30
33 37 1 37 -20 0 -25 5 -25 25 0 21 5 25 28 25 15 0 33 -5 40 -12z m-308 -108
c0 -29 -4 -40 -15 -40 -11 0 -15 11 -15 40 0 29 4 40 15 40 11 0 15 -11 15
-40z m455 -120 c0 -8 -8 -16 -17 -18 -13 -2 -18 3 -18 18 0 15 5 20 18 18 9
-2 17 -10 17 -18z m105 3 c0 -23 -49 -73 -72 -73 -27 0 -22 20 14 57 35 36 58
42 58 16z m-537 -139 c33 -6 37 -10 37 -37 0 -37 -43 -87 -76 -87 -39 0 -74
37 -74 79 0 21 3 41 7 44 8 9 56 9 106 1z m414 -36 c34 -32 43 -58 21 -58 -16
0 -78 61 -78 77 0 22 22 15 57 -19z m160 -34 c7 -19 -44 -74 -69 -74 -27 0
-22 20 14 57 36 37 46 40 55 17z m-797 -89 l0 -55 -50 0 -50 0 0 48 c0 27 3
52 7 55 3 4 26 7 50 7 l43 0 0 -55z m105 35 c30 -34 79 -44 119 -25 19 9 40
23 47 31 6 8 22 14 35 14 23 0 24 -3 24 -60 l0 -61 -147 3 -148 3 -3 58 c-3
57 -3 57 26 57 16 0 37 -9 47 -20z m353 -37 l3 -53 -45 0 -46 0 0 56 0 55 43
-3 42 -3 3 -52z"/>
<path d="M446 234 c-3 -9 -6 -33 -6 -54 0 -48 8 -70 26 -70 9 0 14 17 16 53
l3 52 65 3 c36 2 80 0 98 -3 29 -5 32 -9 32 -40 0 -43 9 -65 26 -65 11 0 14
17 14 70 l0 70 -134 0 c-113 0 -135 -2 -140 -16z"/>
</g>
</svg>
