<?xml version="1.0" standalone="no"?>
<!DOCTYPE svg PUBLIC "-//W3C//DTD SVG 20010904//EN"
 "http://www.w3.org/TR/2001/REC-SVG-20010904/DTD/svg10.dtd">
<svg version="1.0" xmlns="http://www.w3.org/2000/svg"
 width="106.000000pt" height="97.000000pt" viewBox="0 0 106.000000 97.000000"
 preserveAspectRatio="xMidYMid meet">

<g transform="translate(0.000000,97.000000) scale(0.100000,-0.100000)"
fill="#157347" stroke="none">
<path d="M488 883 c-20 -27 -61 -87 -90 -134 l-55 -87 -31 13 c-17 8 -50 15
-74 17 l-43 3 0 -175 c0 -157 2 -180 21 -220 29 -61 85 -122 136 -149 42 -21
143 -43 153 -33 3 3 5 30 5 59 0 46 3 53 18 51 13 -2 18 -16 22 -58 l5 -55 45
3 c91 6 190 76 238 166 26 50 27 55 27 231 l0 180 -43 -3 c-24 -2 -57 -9 -75
-17 l-31 -13 -36 62 c-43 73 -139 206 -149 206 -4 0 -23 -21 -43 -47z m115
-90 c97 -148 94 -131 34 -194 -69 -71 -87 -124 -87 -251 0 -90 -2 -98 -19 -98
-18 0 -20 10 -23 113 -2 91 -7 120 -25 157 -23 46 -57 88 -93 113 -19 13 -19
16 -5 43 22 44 139 214 146 214 4 0 36 -44 72 -97z m-322 -133 c8 0 23 -6 32
-13 17 -11 16 -16 -3 -72 -16 -43 -20 -74 -16 -109 11 -101 81 -198 164 -228
29 -11 32 -16 32 -55 0 -50 -8 -53 -86 -26 -66 22 -145 101 -167 167 -13 38
-17 85 -17 199 l0 149 23 -6 c12 -3 29 -6 38 -6z m559 -147 c0 -134 -3 -164
-19 -200 -31 -67 -95 -129 -157 -153 -79 -29 -84 -28 -84 23 0 42 2 45 40 62
55 25 103 81 129 149 26 71 27 121 1 188 -11 29 -16 55 -12 59 7 8 68 27 90
28 9 1 12 -37 12 -156z m-432 63 c57 -62 73 -105 79 -218 6 -106 4 -110 -45
-84 -97 51 -146 186 -106 295 10 28 21 51 25 51 3 0 25 -20 47 -44z m311 17
c38 -83 20 -199 -42 -270 -26 -29 -75 -63 -92 -63 -3 0 -5 44 -5 98 0 76 5
107 21 142 18 41 84 120 99 120 4 0 12 -12 19 -27z"/>
</g>
</svg>
